<mxfile host="app.diagrams.net" agent="Mozilla/5.0 (Macintosh; Intel Mac OS X 10_15_7) AppleWebKit/537.36 (KHTML, like Gecko) Chrome/131.0.0.0 Safari/537.36" version="25.0.3">
  <diagram id="C5RBs43oDa-KdzZeNtuy" name="Page-1">
    <mxGraphModel dx="1434" dy="785" grid="1" gridSize="10" guides="1" tooltips="1" connect="1" arrows="1" fold="1" page="1" pageScale="1" pageWidth="827" pageHeight="1169" math="0" shadow="0">
      <root>
        <mxCell id="WIyWlLk6GJQsqaUBKTNV-0" />
        <mxCell id="WIyWlLk6GJQsqaUBKTNV-1" parent="WIyWlLk6GJQsqaUBKTNV-0" />
        <mxCell id="zkfFHV4jXpPFQw0GAbJ--0" value="Cliente" style="swimlane;fontStyle=2;align=center;verticalAlign=top;childLayout=stackLayout;horizontal=1;startSize=26;horizontalStack=0;resizeParent=1;resizeLast=0;collapsible=1;marginBottom=0;rounded=0;shadow=0;strokeWidth=1;" parent="WIyWlLk6GJQsqaUBKTNV-1" vertex="1">
          <mxGeometry x="430" y="39" width="320" height="500" as="geometry">
            <mxRectangle x="230" y="140" width="160" height="26" as="alternateBounds" />
          </mxGeometry>
        </mxCell>
        <mxCell id="zkfFHV4jXpPFQw0GAbJ--1" value="- id: int" style="text;align=left;verticalAlign=top;spacingLeft=4;spacingRight=4;overflow=hidden;rotatable=0;points=[[0,0.5],[1,0.5]];portConstraint=eastwest;" parent="zkfFHV4jXpPFQw0GAbJ--0" vertex="1">
          <mxGeometry y="26" width="320" height="26" as="geometry" />
        </mxCell>
        <mxCell id="zkfFHV4jXpPFQw0GAbJ--2" value="- nome: str" style="text;align=left;verticalAlign=top;spacingLeft=4;spacingRight=4;overflow=hidden;rotatable=0;points=[[0,0.5],[1,0.5]];portConstraint=eastwest;rounded=0;shadow=0;html=0;" parent="zkfFHV4jXpPFQw0GAbJ--0" vertex="1">
          <mxGeometry y="52" width="320" height="26" as="geometry" />
        </mxCell>
        <mxCell id="zkfFHV4jXpPFQw0GAbJ--3" value="- email: str" style="text;align=left;verticalAlign=top;spacingLeft=4;spacingRight=4;overflow=hidden;rotatable=0;points=[[0,0.5],[1,0.5]];portConstraint=eastwest;rounded=0;shadow=0;html=0;" parent="zkfFHV4jXpPFQw0GAbJ--0" vertex="1">
          <mxGeometry y="78" width="320" height="24" as="geometry" />
        </mxCell>
        <mxCell id="JbixFuZtRlt0vlySyDat-0" value="- fone: str" style="text;align=left;verticalAlign=top;spacingLeft=4;spacingRight=4;overflow=hidden;rotatable=0;points=[[0,0.5],[1,0.5]];portConstraint=eastwest;rounded=0;shadow=0;html=0;" vertex="1" parent="zkfFHV4jXpPFQw0GAbJ--0">
          <mxGeometry y="102" width="320" height="24" as="geometry" />
        </mxCell>
        <mxCell id="JbixFuZtRlt0vlySyDat-1" value="- senha: str" style="text;align=left;verticalAlign=top;spacingLeft=4;spacingRight=4;overflow=hidden;rotatable=0;points=[[0,0.5],[1,0.5]];portConstraint=eastwest;rounded=0;shadow=0;html=0;" vertex="1" parent="zkfFHV4jXpPFQw0GAbJ--0">
          <mxGeometry y="126" width="320" height="24" as="geometry" />
        </mxCell>
        <mxCell id="zkfFHV4jXpPFQw0GAbJ--4" value="" style="line;html=1;strokeWidth=1;align=left;verticalAlign=middle;spacingTop=-1;spacingLeft=3;spacingRight=3;rotatable=0;labelPosition=right;points=[];portConstraint=eastwest;" parent="zkfFHV4jXpPFQw0GAbJ--0" vertex="1">
          <mxGeometry y="150" width="320" height="10" as="geometry" />
        </mxCell>
        <mxCell id="JbixFuZtRlt0vlySyDat-2" value="+ ClienteÂ (id: int, nome: str, email: str, fone: str, senha: str)" style="text;align=left;verticalAlign=top;spacingLeft=4;spacingRight=4;overflow=hidden;rotatable=0;points=[[0,0.5],[1,0.5]];portConstraint=eastwest;" vertex="1" parent="zkfFHV4jXpPFQw0GAbJ--0">
          <mxGeometry y="160" width="320" height="26" as="geometry" />
        </mxCell>
        <mxCell id="JbixFuZtRlt0vlySyDat-3" value="+ Set_Id(id: int): void" style="text;align=left;verticalAlign=top;spacingLeft=4;spacingRight=4;overflow=hidden;rotatable=0;points=[[0,0.5],[1,0.5]];portConstraint=eastwest;" vertex="1" parent="zkfFHV4jXpPFQw0GAbJ--0">
          <mxGeometry y="186" width="320" height="26" as="geometry" />
        </mxCell>
        <mxCell id="JbixFuZtRlt0vlySyDat-4" value="+ Set_Nome(nome: str): void" style="text;align=left;verticalAlign=top;spacingLeft=4;spacingRight=4;overflow=hidden;rotatable=0;points=[[0,0.5],[1,0.5]];portConstraint=eastwest;" vertex="1" parent="zkfFHV4jXpPFQw0GAbJ--0">
          <mxGeometry y="212" width="320" height="26" as="geometry" />
        </mxCell>
        <mxCell id="JbixFuZtRlt0vlySyDat-5" value="+ Set_Email(email: str): void" style="text;align=left;verticalAlign=top;spacingLeft=4;spacingRight=4;overflow=hidden;rotatable=0;points=[[0,0.5],[1,0.5]];portConstraint=eastwest;" vertex="1" parent="zkfFHV4jXpPFQw0GAbJ--0">
          <mxGeometry y="238" width="320" height="26" as="geometry" />
        </mxCell>
        <mxCell id="JbixFuZtRlt0vlySyDat-6" value="+ Set_Fone(fone: str): void" style="text;align=left;verticalAlign=top;spacingLeft=4;spacingRight=4;overflow=hidden;rotatable=0;points=[[0,0.5],[1,0.5]];portConstraint=eastwest;" vertex="1" parent="zkfFHV4jXpPFQw0GAbJ--0">
          <mxGeometry y="264" width="320" height="26" as="geometry" />
        </mxCell>
        <mxCell id="JbixFuZtRlt0vlySyDat-7" value="+ Set_Senha(senha: str): void" style="text;align=left;verticalAlign=top;spacingLeft=4;spacingRight=4;overflow=hidden;rotatable=0;points=[[0,0.5],[1,0.5]];portConstraint=eastwest;" vertex="1" parent="zkfFHV4jXpPFQw0GAbJ--0">
          <mxGeometry y="290" width="320" height="26" as="geometry" />
        </mxCell>
        <mxCell id="JbixFuZtRlt0vlySyDat-8" value="+ Get_Id(): int" style="text;align=left;verticalAlign=top;spacingLeft=4;spacingRight=4;overflow=hidden;rotatable=0;points=[[0,0.5],[1,0.5]];portConstraint=eastwest;" vertex="1" parent="zkfFHV4jXpPFQw0GAbJ--0">
          <mxGeometry y="316" width="320" height="26" as="geometry" />
        </mxCell>
        <mxCell id="JbixFuZtRlt0vlySyDat-9" value="+ Get_Nome(): str" style="text;align=left;verticalAlign=top;spacingLeft=4;spacingRight=4;overflow=hidden;rotatable=0;points=[[0,0.5],[1,0.5]];portConstraint=eastwest;" vertex="1" parent="zkfFHV4jXpPFQw0GAbJ--0">
          <mxGeometry y="342" width="320" height="26" as="geometry" />
        </mxCell>
        <mxCell id="JbixFuZtRlt0vlySyDat-10" value="+ Get_Email(): str" style="text;align=left;verticalAlign=top;spacingLeft=4;spacingRight=4;overflow=hidden;rotatable=0;points=[[0,0.5],[1,0.5]];portConstraint=eastwest;" vertex="1" parent="zkfFHV4jXpPFQw0GAbJ--0">
          <mxGeometry y="368" width="320" height="26" as="geometry" />
        </mxCell>
        <mxCell id="JbixFuZtRlt0vlySyDat-11" value="+ Get_Fone(): str" style="text;align=left;verticalAlign=top;spacingLeft=4;spacingRight=4;overflow=hidden;rotatable=0;points=[[0,0.5],[1,0.5]];portConstraint=eastwest;" vertex="1" parent="zkfFHV4jXpPFQw0GAbJ--0">
          <mxGeometry y="394" width="320" height="26" as="geometry" />
        </mxCell>
        <mxCell id="JbixFuZtRlt0vlySyDat-12" value="+ Get_Senha(): str" style="text;align=left;verticalAlign=top;spacingLeft=4;spacingRight=4;overflow=hidden;rotatable=0;points=[[0,0.5],[1,0.5]];portConstraint=eastwest;" vertex="1" parent="zkfFHV4jXpPFQw0GAbJ--0">
          <mxGeometry y="420" width="320" height="26" as="geometry" />
        </mxCell>
        <mxCell id="JbixFuZtRlt0vlySyDat-13" value="+ ToString(): str" style="text;align=left;verticalAlign=top;spacingLeft=4;spacingRight=4;overflow=hidden;rotatable=0;points=[[0,0.5],[1,0.5]];portConstraint=eastwest;" vertex="1" parent="zkfFHV4jXpPFQw0GAbJ--0">
          <mxGeometry y="446" width="320" height="26" as="geometry" />
        </mxCell>
        <mxCell id="JbixFuZtRlt0vlySyDat-14" value="+ To_Dict(): dict" style="text;align=left;verticalAlign=top;spacingLeft=4;spacingRight=4;overflow=hidden;rotatable=0;points=[[0,0.5],[1,0.5]];portConstraint=eastwest;" vertex="1" parent="zkfFHV4jXpPFQw0GAbJ--0">
          <mxGeometry y="472" width="320" height="26" as="geometry" />
        </mxCell>
        <mxCell id="JbixFuZtRlt0vlySyDat-16" value="&lt;&lt;static&gt;&gt;&#xa;Clientes" style="swimlane;fontStyle=2;align=center;verticalAlign=top;childLayout=stackLayout;horizontal=1;startSize=42;horizontalStack=0;resizeParent=1;resizeLast=0;collapsible=1;marginBottom=0;rounded=0;shadow=0;strokeWidth=1;" vertex="1" parent="WIyWlLk6GJQsqaUBKTNV-1">
          <mxGeometry x="60" y="146" width="270" height="256" as="geometry">
            <mxRectangle x="230" y="140" width="160" height="26" as="alternateBounds" />
          </mxGeometry>
        </mxCell>
        <mxCell id="JbixFuZtRlt0vlySyDat-17" value="+ objetos: list" style="text;align=left;verticalAlign=top;spacingLeft=4;spacingRight=4;overflow=hidden;rotatable=0;points=[[0,0.5],[1,0.5]];portConstraint=eastwest;" vertex="1" parent="JbixFuZtRlt0vlySyDat-16">
          <mxGeometry y="42" width="270" height="26" as="geometry" />
        </mxCell>
        <mxCell id="JbixFuZtRlt0vlySyDat-22" value="" style="line;html=1;strokeWidth=1;align=left;verticalAlign=middle;spacingTop=-1;spacingLeft=3;spacingRight=3;rotatable=0;labelPosition=right;points=[];portConstraint=eastwest;" vertex="1" parent="JbixFuZtRlt0vlySyDat-16">
          <mxGeometry y="68" width="270" height="10" as="geometry" />
        </mxCell>
        <mxCell id="JbixFuZtRlt0vlySyDat-23" value="+ Inserir(obj: Cliente): void" style="text;align=left;verticalAlign=top;spacingLeft=4;spacingRight=4;overflow=hidden;rotatable=0;points=[[0,0.5],[1,0.5]];portConstraint=eastwest;" vertex="1" parent="JbixFuZtRlt0vlySyDat-16">
          <mxGeometry y="78" width="270" height="26" as="geometry" />
        </mxCell>
        <mxCell id="JbixFuZtRlt0vlySyDat-24" value="+ Listar(): List&lt;Cliente&gt;" style="text;align=left;verticalAlign=top;spacingLeft=4;spacingRight=4;overflow=hidden;rotatable=0;points=[[0,0.5],[1,0.5]];portConstraint=eastwest;" vertex="1" parent="JbixFuZtRlt0vlySyDat-16">
          <mxGeometry y="104" width="270" height="26" as="geometry" />
        </mxCell>
        <mxCell id="JbixFuZtRlt0vlySyDat-25" value="+ Listar_Id(id: int): ClienteÂ " style="text;align=left;verticalAlign=top;spacingLeft=4;spacingRight=4;overflow=hidden;rotatable=0;points=[[0,0.5],[1,0.5]];portConstraint=eastwest;" vertex="1" parent="JbixFuZtRlt0vlySyDat-16">
          <mxGeometry y="130" width="270" height="26" as="geometry" />
        </mxCell>
        <mxCell id="JbixFuZtRlt0vlySyDat-26" value="+ Atualizar(obj: Cliente): void" style="text;align=left;verticalAlign=top;spacingLeft=4;spacingRight=4;overflow=hidden;rotatable=0;points=[[0,0.5],[1,0.5]];portConstraint=eastwest;" vertex="1" parent="JbixFuZtRlt0vlySyDat-16">
          <mxGeometry y="156" width="270" height="26" as="geometry" />
        </mxCell>
        <mxCell id="JbixFuZtRlt0vlySyDat-27" value="+ Excluir(obj: Cliente): void" style="text;align=left;verticalAlign=top;spacingLeft=4;spacingRight=4;overflow=hidden;rotatable=0;points=[[0,0.5],[1,0.5]];portConstraint=eastwest;" vertex="1" parent="JbixFuZtRlt0vlySyDat-16">
          <mxGeometry y="182" width="270" height="24" as="geometry" />
        </mxCell>
        <mxCell id="JbixFuZtRlt0vlySyDat-28" value="+ Salvar(): void" style="text;align=left;verticalAlign=top;spacingLeft=4;spacingRight=4;overflow=hidden;rotatable=0;points=[[0,0.5],[1,0.5]];portConstraint=eastwest;" vertex="1" parent="JbixFuZtRlt0vlySyDat-16">
          <mxGeometry y="206" width="270" height="26" as="geometry" />
        </mxCell>
        <mxCell id="JbixFuZtRlt0vlySyDat-29" value="+ Abrir(): void" style="text;align=left;verticalAlign=top;spacingLeft=4;spacingRight=4;overflow=hidden;rotatable=0;points=[[0,0.5],[1,0.5]];portConstraint=eastwest;" vertex="1" parent="JbixFuZtRlt0vlySyDat-16">
          <mxGeometry y="232" width="270" height="24" as="geometry" />
        </mxCell>
        <mxCell id="JbixFuZtRlt0vlySyDat-36" style="edgeStyle=orthogonalEdgeStyle;rounded=0;orthogonalLoop=1;jettySize=auto;html=1;exitX=0;exitY=0.5;exitDx=0;exitDy=0;entryX=1;entryY=0.5;entryDx=0;entryDy=0;endArrow=diamondThin;endFill=1;" edge="1" parent="WIyWlLk6GJQsqaUBKTNV-1" source="zkfFHV4jXpPFQw0GAbJ--0" target="JbixFuZtRlt0vlySyDat-25">
          <mxGeometry relative="1" as="geometry" />
        </mxCell>
        <mxCell id="JbixFuZtRlt0vlySyDat-38" value="Categoria" style="swimlane;fontStyle=2;align=center;verticalAlign=top;childLayout=stackLayout;horizontal=1;startSize=26;horizontalStack=0;resizeParent=1;resizeLast=0;collapsible=1;marginBottom=0;rounded=0;shadow=0;strokeWidth=1;" vertex="1" parent="WIyWlLk6GJQsqaUBKTNV-1">
          <mxGeometry x="430" y="568" width="270" height="270" as="geometry">
            <mxRectangle x="230" y="140" width="160" height="26" as="alternateBounds" />
          </mxGeometry>
        </mxCell>
        <mxCell id="JbixFuZtRlt0vlySyDat-39" value="- id: int" style="text;align=left;verticalAlign=top;spacingLeft=4;spacingRight=4;overflow=hidden;rotatable=0;points=[[0,0.5],[1,0.5]];portConstraint=eastwest;" vertex="1" parent="JbixFuZtRlt0vlySyDat-38">
          <mxGeometry y="26" width="270" height="26" as="geometry" />
        </mxCell>
        <mxCell id="JbixFuZtRlt0vlySyDat-40" value="- descricao: str" style="text;align=left;verticalAlign=top;spacingLeft=4;spacingRight=4;overflow=hidden;rotatable=0;points=[[0,0.5],[1,0.5]];portConstraint=eastwest;rounded=0;shadow=0;html=0;" vertex="1" parent="JbixFuZtRlt0vlySyDat-38">
          <mxGeometry y="52" width="270" height="26" as="geometry" />
        </mxCell>
        <mxCell id="JbixFuZtRlt0vlySyDat-44" value="" style="line;html=1;strokeWidth=1;align=left;verticalAlign=middle;spacingTop=-1;spacingLeft=3;spacingRight=3;rotatable=0;labelPosition=right;points=[];portConstraint=eastwest;" vertex="1" parent="JbixFuZtRlt0vlySyDat-38">
          <mxGeometry y="78" width="270" height="10" as="geometry" />
        </mxCell>
        <mxCell id="JbixFuZtRlt0vlySyDat-45" value="+ Categoria (id: int, descricao: str)" style="text;align=left;verticalAlign=top;spacingLeft=4;spacingRight=4;overflow=hidden;rotatable=0;points=[[0,0.5],[1,0.5]];portConstraint=eastwest;" vertex="1" parent="JbixFuZtRlt0vlySyDat-38">
          <mxGeometry y="88" width="270" height="22" as="geometry" />
        </mxCell>
        <mxCell id="JbixFuZtRlt0vlySyDat-46" value="+ Set_Id(id: int): void" style="text;align=left;verticalAlign=top;spacingLeft=4;spacingRight=4;overflow=hidden;rotatable=0;points=[[0,0.5],[1,0.5]];portConstraint=eastwest;" vertex="1" parent="JbixFuZtRlt0vlySyDat-38">
          <mxGeometry y="110" width="270" height="26" as="geometry" />
        </mxCell>
        <mxCell id="JbixFuZtRlt0vlySyDat-47" value="+ Set_Descricao(d: str): void" style="text;align=left;verticalAlign=top;spacingLeft=4;spacingRight=4;overflow=hidden;rotatable=0;points=[[0,0.5],[1,0.5]];portConstraint=eastwest;" vertex="1" parent="JbixFuZtRlt0vlySyDat-38">
          <mxGeometry y="136" width="270" height="26" as="geometry" />
        </mxCell>
        <mxCell id="JbixFuZtRlt0vlySyDat-51" value="+ Get_Id(): int" style="text;align=left;verticalAlign=top;spacingLeft=4;spacingRight=4;overflow=hidden;rotatable=0;points=[[0,0.5],[1,0.5]];portConstraint=eastwest;" vertex="1" parent="JbixFuZtRlt0vlySyDat-38">
          <mxGeometry y="162" width="270" height="26" as="geometry" />
        </mxCell>
        <mxCell id="JbixFuZtRlt0vlySyDat-52" value="+ Get_Descricao(): str" style="text;align=left;verticalAlign=top;spacingLeft=4;spacingRight=4;overflow=hidden;rotatable=0;points=[[0,0.5],[1,0.5]];portConstraint=eastwest;" vertex="1" parent="JbixFuZtRlt0vlySyDat-38">
          <mxGeometry y="188" width="270" height="26" as="geometry" />
        </mxCell>
        <mxCell id="JbixFuZtRlt0vlySyDat-56" value="+ ToString(): str" style="text;align=left;verticalAlign=top;spacingLeft=4;spacingRight=4;overflow=hidden;rotatable=0;points=[[0,0.5],[1,0.5]];portConstraint=eastwest;" vertex="1" parent="JbixFuZtRlt0vlySyDat-38">
          <mxGeometry y="214" width="270" height="26" as="geometry" />
        </mxCell>
        <mxCell id="JbixFuZtRlt0vlySyDat-57" value="+ To_Dict(): dict" style="text;align=left;verticalAlign=top;spacingLeft=4;spacingRight=4;overflow=hidden;rotatable=0;points=[[0,0.5],[1,0.5]];portConstraint=eastwest;" vertex="1" parent="JbixFuZtRlt0vlySyDat-38">
          <mxGeometry y="240" width="270" height="26" as="geometry" />
        </mxCell>
        <mxCell id="JbixFuZtRlt0vlySyDat-58" value="&lt;&lt;static&gt;&gt;&#xa;Categorias" style="swimlane;fontStyle=2;align=center;verticalAlign=top;childLayout=stackLayout;horizontal=1;startSize=42;horizontalStack=0;resizeParent=1;resizeLast=0;collapsible=1;marginBottom=0;rounded=0;shadow=0;strokeWidth=1;" vertex="1" parent="WIyWlLk6GJQsqaUBKTNV-1">
          <mxGeometry x="60" y="560" width="270" height="256" as="geometry">
            <mxRectangle x="230" y="140" width="160" height="26" as="alternateBounds" />
          </mxGeometry>
        </mxCell>
        <mxCell id="JbixFuZtRlt0vlySyDat-59" value="+ objetos: list" style="text;align=left;verticalAlign=top;spacingLeft=4;spacingRight=4;overflow=hidden;rotatable=0;points=[[0,0.5],[1,0.5]];portConstraint=eastwest;" vertex="1" parent="JbixFuZtRlt0vlySyDat-58">
          <mxGeometry y="42" width="270" height="26" as="geometry" />
        </mxCell>
        <mxCell id="JbixFuZtRlt0vlySyDat-60" value="" style="line;html=1;strokeWidth=1;align=left;verticalAlign=middle;spacingTop=-1;spacingLeft=3;spacingRight=3;rotatable=0;labelPosition=right;points=[];portConstraint=eastwest;" vertex="1" parent="JbixFuZtRlt0vlySyDat-58">
          <mxGeometry y="68" width="270" height="10" as="geometry" />
        </mxCell>
        <mxCell id="JbixFuZtRlt0vlySyDat-61" value="+ Inserir(obj: Categoria): void" style="text;align=left;verticalAlign=top;spacingLeft=4;spacingRight=4;overflow=hidden;rotatable=0;points=[[0,0.5],[1,0.5]];portConstraint=eastwest;" vertex="1" parent="JbixFuZtRlt0vlySyDat-58">
          <mxGeometry y="78" width="270" height="26" as="geometry" />
        </mxCell>
        <mxCell id="JbixFuZtRlt0vlySyDat-62" value="+ Listar(): List&lt;Categoria&gt;" style="text;align=left;verticalAlign=top;spacingLeft=4;spacingRight=4;overflow=hidden;rotatable=0;points=[[0,0.5],[1,0.5]];portConstraint=eastwest;" vertex="1" parent="JbixFuZtRlt0vlySyDat-58">
          <mxGeometry y="104" width="270" height="26" as="geometry" />
        </mxCell>
        <mxCell id="JbixFuZtRlt0vlySyDat-63" value="+ Listar_Id(id: int): Categoria" style="text;align=left;verticalAlign=top;spacingLeft=4;spacingRight=4;overflow=hidden;rotatable=0;points=[[0,0.5],[1,0.5]];portConstraint=eastwest;" vertex="1" parent="JbixFuZtRlt0vlySyDat-58">
          <mxGeometry y="130" width="270" height="26" as="geometry" />
        </mxCell>
        <mxCell id="JbixFuZtRlt0vlySyDat-64" value="+ Atualizar(obj: Categoria): void" style="text;align=left;verticalAlign=top;spacingLeft=4;spacingRight=4;overflow=hidden;rotatable=0;points=[[0,0.5],[1,0.5]];portConstraint=eastwest;" vertex="1" parent="JbixFuZtRlt0vlySyDat-58">
          <mxGeometry y="156" width="270" height="26" as="geometry" />
        </mxCell>
        <mxCell id="JbixFuZtRlt0vlySyDat-65" value="+ Excluir(obj: Categoria): void" style="text;align=left;verticalAlign=top;spacingLeft=4;spacingRight=4;overflow=hidden;rotatable=0;points=[[0,0.5],[1,0.5]];portConstraint=eastwest;" vertex="1" parent="JbixFuZtRlt0vlySyDat-58">
          <mxGeometry y="182" width="270" height="24" as="geometry" />
        </mxCell>
        <mxCell id="JbixFuZtRlt0vlySyDat-66" value="+ Salvar(): void" style="text;align=left;verticalAlign=top;spacingLeft=4;spacingRight=4;overflow=hidden;rotatable=0;points=[[0,0.5],[1,0.5]];portConstraint=eastwest;" vertex="1" parent="JbixFuZtRlt0vlySyDat-58">
          <mxGeometry y="206" width="270" height="26" as="geometry" />
        </mxCell>
        <mxCell id="JbixFuZtRlt0vlySyDat-67" value="+ Abrir(): void" style="text;align=left;verticalAlign=top;spacingLeft=4;spacingRight=4;overflow=hidden;rotatable=0;points=[[0,0.5],[1,0.5]];portConstraint=eastwest;" vertex="1" parent="JbixFuZtRlt0vlySyDat-58">
          <mxGeometry y="232" width="270" height="24" as="geometry" />
        </mxCell>
        <mxCell id="JbixFuZtRlt0vlySyDat-68" style="edgeStyle=orthogonalEdgeStyle;rounded=0;orthogonalLoop=1;jettySize=auto;html=1;exitX=0;exitY=0.5;exitDx=0;exitDy=0;entryX=1;entryY=0.5;entryDx=0;entryDy=0;endArrow=diamondThin;endFill=1;" edge="1" parent="WIyWlLk6GJQsqaUBKTNV-1" source="JbixFuZtRlt0vlySyDat-38" target="JbixFuZtRlt0vlySyDat-63">
          <mxGeometry relative="1" as="geometry" />
        </mxCell>
        <mxCell id="JbixFuZtRlt0vlySyDat-95" value="Produto" style="swimlane;fontStyle=2;align=center;verticalAlign=top;childLayout=stackLayout;horizontal=1;startSize=26;horizontalStack=0;resizeParent=1;resizeLast=0;collapsible=1;marginBottom=0;rounded=0;shadow=0;strokeWidth=1;" vertex="1" parent="WIyWlLk6GJQsqaUBKTNV-1">
          <mxGeometry x="1219" y="38" width="410" height="500" as="geometry">
            <mxRectangle x="230" y="140" width="160" height="26" as="alternateBounds" />
          </mxGeometry>
        </mxCell>
        <mxCell id="JbixFuZtRlt0vlySyDat-96" value="- id: int" style="text;align=left;verticalAlign=top;spacingLeft=4;spacingRight=4;overflow=hidden;rotatable=0;points=[[0,0.5],[1,0.5]];portConstraint=eastwest;" vertex="1" parent="JbixFuZtRlt0vlySyDat-95">
          <mxGeometry y="26" width="410" height="26" as="geometry" />
        </mxCell>
        <mxCell id="JbixFuZtRlt0vlySyDat-97" value="- descricao: str" style="text;align=left;verticalAlign=top;spacingLeft=4;spacingRight=4;overflow=hidden;rotatable=0;points=[[0,0.5],[1,0.5]];portConstraint=eastwest;rounded=0;shadow=0;html=0;" vertex="1" parent="JbixFuZtRlt0vlySyDat-95">
          <mxGeometry y="52" width="410" height="26" as="geometry" />
        </mxCell>
        <mxCell id="JbixFuZtRlt0vlySyDat-98" value="- preco: float" style="text;align=left;verticalAlign=top;spacingLeft=4;spacingRight=4;overflow=hidden;rotatable=0;points=[[0,0.5],[1,0.5]];portConstraint=eastwest;rounded=0;shadow=0;html=0;" vertex="1" parent="JbixFuZtRlt0vlySyDat-95">
          <mxGeometry y="78" width="410" height="24" as="geometry" />
        </mxCell>
        <mxCell id="JbixFuZtRlt0vlySyDat-99" value="- estoque: int" style="text;align=left;verticalAlign=top;spacingLeft=4;spacingRight=4;overflow=hidden;rotatable=0;points=[[0,0.5],[1,0.5]];portConstraint=eastwest;rounded=0;shadow=0;html=0;" vertex="1" parent="JbixFuZtRlt0vlySyDat-95">
          <mxGeometry y="102" width="410" height="24" as="geometry" />
        </mxCell>
        <mxCell id="JbixFuZtRlt0vlySyDat-100" value="- id_categoria: int" style="text;align=left;verticalAlign=top;spacingLeft=4;spacingRight=4;overflow=hidden;rotatable=0;points=[[0,0.5],[1,0.5]];portConstraint=eastwest;rounded=0;shadow=0;html=0;" vertex="1" parent="JbixFuZtRlt0vlySyDat-95">
          <mxGeometry y="126" width="410" height="24" as="geometry" />
        </mxCell>
        <mxCell id="JbixFuZtRlt0vlySyDat-101" value="" style="line;html=1;strokeWidth=1;align=left;verticalAlign=middle;spacingTop=-1;spacingLeft=3;spacingRight=3;rotatable=0;labelPosition=right;points=[];portConstraint=eastwest;" vertex="1" parent="JbixFuZtRlt0vlySyDat-95">
          <mxGeometry y="150" width="410" height="10" as="geometry" />
        </mxCell>
        <mxCell id="JbixFuZtRlt0vlySyDat-102" value="+ ClienteÂ (id: int, descricao: str, preco: float, estoque: int, id_categoria: int)" style="text;align=left;verticalAlign=top;spacingLeft=4;spacingRight=4;overflow=hidden;rotatable=0;points=[[0,0.5],[1,0.5]];portConstraint=eastwest;" vertex="1" parent="JbixFuZtRlt0vlySyDat-95">
          <mxGeometry y="160" width="410" height="26" as="geometry" />
        </mxCell>
        <mxCell id="JbixFuZtRlt0vlySyDat-103" value="+ Set_Id(id: int): void" style="text;align=left;verticalAlign=top;spacingLeft=4;spacingRight=4;overflow=hidden;rotatable=0;points=[[0,0.5],[1,0.5]];portConstraint=eastwest;" vertex="1" parent="JbixFuZtRlt0vlySyDat-95">
          <mxGeometry y="186" width="410" height="26" as="geometry" />
        </mxCell>
        <mxCell id="JbixFuZtRlt0vlySyDat-104" value="+ Set_Descricao(d: str): void" style="text;align=left;verticalAlign=top;spacingLeft=4;spacingRight=4;overflow=hidden;rotatable=0;points=[[0,0.5],[1,0.5]];portConstraint=eastwest;" vertex="1" parent="JbixFuZtRlt0vlySyDat-95">
          <mxGeometry y="212" width="410" height="26" as="geometry" />
        </mxCell>
        <mxCell id="JbixFuZtRlt0vlySyDat-105" value="+ Set_Preco(p: float): void" style="text;align=left;verticalAlign=top;spacingLeft=4;spacingRight=4;overflow=hidden;rotatable=0;points=[[0,0.5],[1,0.5]];portConstraint=eastwest;" vertex="1" parent="JbixFuZtRlt0vlySyDat-95">
          <mxGeometry y="238" width="410" height="26" as="geometry" />
        </mxCell>
        <mxCell id="JbixFuZtRlt0vlySyDat-106" value="+ Set_Estoque(e: int): void" style="text;align=left;verticalAlign=top;spacingLeft=4;spacingRight=4;overflow=hidden;rotatable=0;points=[[0,0.5],[1,0.5]];portConstraint=eastwest;" vertex="1" parent="JbixFuZtRlt0vlySyDat-95">
          <mxGeometry y="264" width="410" height="26" as="geometry" />
        </mxCell>
        <mxCell id="JbixFuZtRlt0vlySyDat-107" value="+ Set_Id_Categoria(id_categoria: int): void" style="text;align=left;verticalAlign=top;spacingLeft=4;spacingRight=4;overflow=hidden;rotatable=0;points=[[0,0.5],[1,0.5]];portConstraint=eastwest;" vertex="1" parent="JbixFuZtRlt0vlySyDat-95">
          <mxGeometry y="290" width="410" height="26" as="geometry" />
        </mxCell>
        <mxCell id="JbixFuZtRlt0vlySyDat-108" value="+ Get_Id(): int" style="text;align=left;verticalAlign=top;spacingLeft=4;spacingRight=4;overflow=hidden;rotatable=0;points=[[0,0.5],[1,0.5]];portConstraint=eastwest;" vertex="1" parent="JbixFuZtRlt0vlySyDat-95">
          <mxGeometry y="316" width="410" height="26" as="geometry" />
        </mxCell>
        <mxCell id="JbixFuZtRlt0vlySyDat-109" value="+ Get_Descricao(): str" style="text;align=left;verticalAlign=top;spacingLeft=4;spacingRight=4;overflow=hidden;rotatable=0;points=[[0,0.5],[1,0.5]];portConstraint=eastwest;" vertex="1" parent="JbixFuZtRlt0vlySyDat-95">
          <mxGeometry y="342" width="410" height="26" as="geometry" />
        </mxCell>
        <mxCell id="JbixFuZtRlt0vlySyDat-110" value="+ Get_Preco(): float" style="text;align=left;verticalAlign=top;spacingLeft=4;spacingRight=4;overflow=hidden;rotatable=0;points=[[0,0.5],[1,0.5]];portConstraint=eastwest;" vertex="1" parent="JbixFuZtRlt0vlySyDat-95">
          <mxGeometry y="368" width="410" height="26" as="geometry" />
        </mxCell>
        <mxCell id="JbixFuZtRlt0vlySyDat-111" value="+ Get_Estoque(): int" style="text;align=left;verticalAlign=top;spacingLeft=4;spacingRight=4;overflow=hidden;rotatable=0;points=[[0,0.5],[1,0.5]];portConstraint=eastwest;" vertex="1" parent="JbixFuZtRlt0vlySyDat-95">
          <mxGeometry y="394" width="410" height="26" as="geometry" />
        </mxCell>
        <mxCell id="JbixFuZtRlt0vlySyDat-112" value="+ Get_Id_Categoria(): int" style="text;align=left;verticalAlign=top;spacingLeft=4;spacingRight=4;overflow=hidden;rotatable=0;points=[[0,0.5],[1,0.5]];portConstraint=eastwest;" vertex="1" parent="JbixFuZtRlt0vlySyDat-95">
          <mxGeometry y="420" width="410" height="26" as="geometry" />
        </mxCell>
        <mxCell id="JbixFuZtRlt0vlySyDat-113" value="+ ToString(): str" style="text;align=left;verticalAlign=top;spacingLeft=4;spacingRight=4;overflow=hidden;rotatable=0;points=[[0,0.5],[1,0.5]];portConstraint=eastwest;" vertex="1" parent="JbixFuZtRlt0vlySyDat-95">
          <mxGeometry y="446" width="410" height="26" as="geometry" />
        </mxCell>
        <mxCell id="JbixFuZtRlt0vlySyDat-114" value="+ To_Dict(): dict" style="text;align=left;verticalAlign=top;spacingLeft=4;spacingRight=4;overflow=hidden;rotatable=0;points=[[0,0.5],[1,0.5]];portConstraint=eastwest;" vertex="1" parent="JbixFuZtRlt0vlySyDat-95">
          <mxGeometry y="472" width="410" height="26" as="geometry" />
        </mxCell>
        <mxCell id="JbixFuZtRlt0vlySyDat-115" value="&lt;&lt;static&gt;&gt;&#xa;Produtos" style="swimlane;fontStyle=2;align=center;verticalAlign=top;childLayout=stackLayout;horizontal=1;startSize=42;horizontalStack=0;resizeParent=1;resizeLast=0;collapsible=1;marginBottom=0;rounded=0;shadow=0;strokeWidth=1;" vertex="1" parent="WIyWlLk6GJQsqaUBKTNV-1">
          <mxGeometry x="849" y="146" width="270" height="256" as="geometry">
            <mxRectangle x="230" y="140" width="160" height="26" as="alternateBounds" />
          </mxGeometry>
        </mxCell>
        <mxCell id="JbixFuZtRlt0vlySyDat-116" value="+ objetos: list" style="text;align=left;verticalAlign=top;spacingLeft=4;spacingRight=4;overflow=hidden;rotatable=0;points=[[0,0.5],[1,0.5]];portConstraint=eastwest;" vertex="1" parent="JbixFuZtRlt0vlySyDat-115">
          <mxGeometry y="42" width="270" height="26" as="geometry" />
        </mxCell>
        <mxCell id="JbixFuZtRlt0vlySyDat-117" value="" style="line;html=1;strokeWidth=1;align=left;verticalAlign=middle;spacingTop=-1;spacingLeft=3;spacingRight=3;rotatable=0;labelPosition=right;points=[];portConstraint=eastwest;" vertex="1" parent="JbixFuZtRlt0vlySyDat-115">
          <mxGeometry y="68" width="270" height="10" as="geometry" />
        </mxCell>
        <mxCell id="JbixFuZtRlt0vlySyDat-118" value="+ Inserir(obj: Produto): void" style="text;align=left;verticalAlign=top;spacingLeft=4;spacingRight=4;overflow=hidden;rotatable=0;points=[[0,0.5],[1,0.5]];portConstraint=eastwest;" vertex="1" parent="JbixFuZtRlt0vlySyDat-115">
          <mxGeometry y="78" width="270" height="26" as="geometry" />
        </mxCell>
        <mxCell id="JbixFuZtRlt0vlySyDat-119" value="+ Listar(): List&lt;Produto&gt;" style="text;align=left;verticalAlign=top;spacingLeft=4;spacingRight=4;overflow=hidden;rotatable=0;points=[[0,0.5],[1,0.5]];portConstraint=eastwest;" vertex="1" parent="JbixFuZtRlt0vlySyDat-115">
          <mxGeometry y="104" width="270" height="26" as="geometry" />
        </mxCell>
        <mxCell id="JbixFuZtRlt0vlySyDat-120" value="+ Listar_Id(id: int): ProdutoÂ " style="text;align=left;verticalAlign=top;spacingLeft=4;spacingRight=4;overflow=hidden;rotatable=0;points=[[0,0.5],[1,0.5]];portConstraint=eastwest;" vertex="1" parent="JbixFuZtRlt0vlySyDat-115">
          <mxGeometry y="130" width="270" height="26" as="geometry" />
        </mxCell>
        <mxCell id="JbixFuZtRlt0vlySyDat-121" value="+ Atualizar(obj: Produto): void" style="text;align=left;verticalAlign=top;spacingLeft=4;spacingRight=4;overflow=hidden;rotatable=0;points=[[0,0.5],[1,0.5]];portConstraint=eastwest;" vertex="1" parent="JbixFuZtRlt0vlySyDat-115">
          <mxGeometry y="156" width="270" height="26" as="geometry" />
        </mxCell>
        <mxCell id="JbixFuZtRlt0vlySyDat-122" value="+ Excluir(obj: Produto): void" style="text;align=left;verticalAlign=top;spacingLeft=4;spacingRight=4;overflow=hidden;rotatable=0;points=[[0,0.5],[1,0.5]];portConstraint=eastwest;" vertex="1" parent="JbixFuZtRlt0vlySyDat-115">
          <mxGeometry y="182" width="270" height="24" as="geometry" />
        </mxCell>
        <mxCell id="JbixFuZtRlt0vlySyDat-123" value="+ Salvar(): void" style="text;align=left;verticalAlign=top;spacingLeft=4;spacingRight=4;overflow=hidden;rotatable=0;points=[[0,0.5],[1,0.5]];portConstraint=eastwest;" vertex="1" parent="JbixFuZtRlt0vlySyDat-115">
          <mxGeometry y="206" width="270" height="26" as="geometry" />
        </mxCell>
        <mxCell id="JbixFuZtRlt0vlySyDat-124" value="+ Abrir(): void" style="text;align=left;verticalAlign=top;spacingLeft=4;spacingRight=4;overflow=hidden;rotatable=0;points=[[0,0.5],[1,0.5]];portConstraint=eastwest;" vertex="1" parent="JbixFuZtRlt0vlySyDat-115">
          <mxGeometry y="232" width="270" height="24" as="geometry" />
        </mxCell>
        <mxCell id="JbixFuZtRlt0vlySyDat-126" style="edgeStyle=orthogonalEdgeStyle;rounded=0;orthogonalLoop=1;jettySize=auto;html=1;exitX=0;exitY=0.5;exitDx=0;exitDy=0;entryX=1;entryY=0.5;entryDx=0;entryDy=0;endArrow=diamondThin;endFill=1;" edge="1" parent="WIyWlLk6GJQsqaUBKTNV-1" source="JbixFuZtRlt0vlySyDat-105" target="JbixFuZtRlt0vlySyDat-120">
          <mxGeometry relative="1" as="geometry" />
        </mxCell>
        <mxCell id="JbixFuZtRlt0vlySyDat-127" value="Venda" style="swimlane;fontStyle=2;align=center;verticalAlign=top;childLayout=stackLayout;horizontal=1;startSize=26;horizontalStack=0;resizeParent=1;resizeLast=0;collapsible=1;marginBottom=0;rounded=0;shadow=0;strokeWidth=1;" vertex="1" parent="WIyWlLk6GJQsqaUBKTNV-1">
          <mxGeometry x="1219" y="568" width="361" height="500" as="geometry">
            <mxRectangle x="230" y="140" width="160" height="26" as="alternateBounds" />
          </mxGeometry>
        </mxCell>
        <mxCell id="JbixFuZtRlt0vlySyDat-128" value="- id: int" style="text;align=left;verticalAlign=top;spacingLeft=4;spacingRight=4;overflow=hidden;rotatable=0;points=[[0,0.5],[1,0.5]];portConstraint=eastwest;" vertex="1" parent="JbixFuZtRlt0vlySyDat-127">
          <mxGeometry y="26" width="361" height="26" as="geometry" />
        </mxCell>
        <mxCell id="JbixFuZtRlt0vlySyDat-129" value="- data: datetime" style="text;align=left;verticalAlign=top;spacingLeft=4;spacingRight=4;overflow=hidden;rotatable=0;points=[[0,0.5],[1,0.5]];portConstraint=eastwest;rounded=0;shadow=0;html=0;" vertex="1" parent="JbixFuZtRlt0vlySyDat-127">
          <mxGeometry y="52" width="361" height="26" as="geometry" />
        </mxCell>
        <mxCell id="JbixFuZtRlt0vlySyDat-130" value="- carrinho: bool" style="text;align=left;verticalAlign=top;spacingLeft=4;spacingRight=4;overflow=hidden;rotatable=0;points=[[0,0.5],[1,0.5]];portConstraint=eastwest;rounded=0;shadow=0;html=0;" vertex="1" parent="JbixFuZtRlt0vlySyDat-127">
          <mxGeometry y="78" width="361" height="24" as="geometry" />
        </mxCell>
        <mxCell id="JbixFuZtRlt0vlySyDat-131" value="- total: float" style="text;align=left;verticalAlign=top;spacingLeft=4;spacingRight=4;overflow=hidden;rotatable=0;points=[[0,0.5],[1,0.5]];portConstraint=eastwest;rounded=0;shadow=0;html=0;" vertex="1" parent="JbixFuZtRlt0vlySyDat-127">
          <mxGeometry y="102" width="361" height="24" as="geometry" />
        </mxCell>
        <mxCell id="JbixFuZtRlt0vlySyDat-132" value="- id_cliente: int" style="text;align=left;verticalAlign=top;spacingLeft=4;spacingRight=4;overflow=hidden;rotatable=0;points=[[0,0.5],[1,0.5]];portConstraint=eastwest;rounded=0;shadow=0;html=0;" vertex="1" parent="JbixFuZtRlt0vlySyDat-127">
          <mxGeometry y="126" width="361" height="24" as="geometry" />
        </mxCell>
        <mxCell id="JbixFuZtRlt0vlySyDat-133" value="" style="line;html=1;strokeWidth=1;align=left;verticalAlign=middle;spacingTop=-1;spacingLeft=3;spacingRight=3;rotatable=0;labelPosition=right;points=[];portConstraint=eastwest;" vertex="1" parent="JbixFuZtRlt0vlySyDat-127">
          <mxGeometry y="150" width="361" height="10" as="geometry" />
        </mxCell>
        <mxCell id="JbixFuZtRlt0vlySyDat-134" value="+ Venda (id: int, data: str, carrinho: bool, total: float, id_cliente: int)" style="text;align=left;verticalAlign=top;spacingLeft=4;spacingRight=4;overflow=hidden;rotatable=0;points=[[0,0.5],[1,0.5]];portConstraint=eastwest;" vertex="1" parent="JbixFuZtRlt0vlySyDat-127">
          <mxGeometry y="160" width="361" height="26" as="geometry" />
        </mxCell>
        <mxCell id="JbixFuZtRlt0vlySyDat-135" value="+ Set_Id(id: int): void" style="text;align=left;verticalAlign=top;spacingLeft=4;spacingRight=4;overflow=hidden;rotatable=0;points=[[0,0.5],[1,0.5]];portConstraint=eastwest;" vertex="1" parent="JbixFuZtRlt0vlySyDat-127">
          <mxGeometry y="186" width="361" height="26" as="geometry" />
        </mxCell>
        <mxCell id="JbixFuZtRlt0vlySyDat-136" value="+ Set_Data(data: datetime): void" style="text;align=left;verticalAlign=top;spacingLeft=4;spacingRight=4;overflow=hidden;rotatable=0;points=[[0,0.5],[1,0.5]];portConstraint=eastwest;" vertex="1" parent="JbixFuZtRlt0vlySyDat-127">
          <mxGeometry y="212" width="361" height="26" as="geometry" />
        </mxCell>
        <mxCell id="JbixFuZtRlt0vlySyDat-137" value="+ Set_Carrinho(carrinho: bool): void" style="text;align=left;verticalAlign=top;spacingLeft=4;spacingRight=4;overflow=hidden;rotatable=0;points=[[0,0.5],[1,0.5]];portConstraint=eastwest;" vertex="1" parent="JbixFuZtRlt0vlySyDat-127">
          <mxGeometry y="238" width="361" height="26" as="geometry" />
        </mxCell>
        <mxCell id="JbixFuZtRlt0vlySyDat-138" value="+ Set_Total(total: float): void" style="text;align=left;verticalAlign=top;spacingLeft=4;spacingRight=4;overflow=hidden;rotatable=0;points=[[0,0.5],[1,0.5]];portConstraint=eastwest;" vertex="1" parent="JbixFuZtRlt0vlySyDat-127">
          <mxGeometry y="264" width="361" height="26" as="geometry" />
        </mxCell>
        <mxCell id="JbixFuZtRlt0vlySyDat-139" value="+ Set_Id_Cliente(id_cliente: int): void" style="text;align=left;verticalAlign=top;spacingLeft=4;spacingRight=4;overflow=hidden;rotatable=0;points=[[0,0.5],[1,0.5]];portConstraint=eastwest;" vertex="1" parent="JbixFuZtRlt0vlySyDat-127">
          <mxGeometry y="290" width="361" height="26" as="geometry" />
        </mxCell>
        <mxCell id="JbixFuZtRlt0vlySyDat-140" value="+ Get_Id(): int" style="text;align=left;verticalAlign=top;spacingLeft=4;spacingRight=4;overflow=hidden;rotatable=0;points=[[0,0.5],[1,0.5]];portConstraint=eastwest;" vertex="1" parent="JbixFuZtRlt0vlySyDat-127">
          <mxGeometry y="316" width="361" height="26" as="geometry" />
        </mxCell>
        <mxCell id="JbixFuZtRlt0vlySyDat-141" value="+ Get_Data(): datetime" style="text;align=left;verticalAlign=top;spacingLeft=4;spacingRight=4;overflow=hidden;rotatable=0;points=[[0,0.5],[1,0.5]];portConstraint=eastwest;" vertex="1" parent="JbixFuZtRlt0vlySyDat-127">
          <mxGeometry y="342" width="361" height="26" as="geometry" />
        </mxCell>
        <mxCell id="JbixFuZtRlt0vlySyDat-142" value="+ Get_Carrinho(): bool" style="text;align=left;verticalAlign=top;spacingLeft=4;spacingRight=4;overflow=hidden;rotatable=0;points=[[0,0.5],[1,0.5]];portConstraint=eastwest;" vertex="1" parent="JbixFuZtRlt0vlySyDat-127">
          <mxGeometry y="368" width="361" height="26" as="geometry" />
        </mxCell>
        <mxCell id="JbixFuZtRlt0vlySyDat-143" value="+ Get_Total(): float" style="text;align=left;verticalAlign=top;spacingLeft=4;spacingRight=4;overflow=hidden;rotatable=0;points=[[0,0.5],[1,0.5]];portConstraint=eastwest;" vertex="1" parent="JbixFuZtRlt0vlySyDat-127">
          <mxGeometry y="394" width="361" height="26" as="geometry" />
        </mxCell>
        <mxCell id="JbixFuZtRlt0vlySyDat-144" value="+ Get_Id_Cliente(): int" style="text;align=left;verticalAlign=top;spacingLeft=4;spacingRight=4;overflow=hidden;rotatable=0;points=[[0,0.5],[1,0.5]];portConstraint=eastwest;" vertex="1" parent="JbixFuZtRlt0vlySyDat-127">
          <mxGeometry y="420" width="361" height="26" as="geometry" />
        </mxCell>
        <mxCell id="JbixFuZtRlt0vlySyDat-145" value="+ ToString(): str" style="text;align=left;verticalAlign=top;spacingLeft=4;spacingRight=4;overflow=hidden;rotatable=0;points=[[0,0.5],[1,0.5]];portConstraint=eastwest;" vertex="1" parent="JbixFuZtRlt0vlySyDat-127">
          <mxGeometry y="446" width="361" height="26" as="geometry" />
        </mxCell>
        <mxCell id="JbixFuZtRlt0vlySyDat-146" value="+ To_Dict(): dict" style="text;align=left;verticalAlign=top;spacingLeft=4;spacingRight=4;overflow=hidden;rotatable=0;points=[[0,0.5],[1,0.5]];portConstraint=eastwest;" vertex="1" parent="JbixFuZtRlt0vlySyDat-127">
          <mxGeometry y="472" width="361" height="26" as="geometry" />
        </mxCell>
        <mxCell id="JbixFuZtRlt0vlySyDat-147" value="&lt;&lt;static&gt;&gt;&#xa;Vendas" style="swimlane;fontStyle=2;align=center;verticalAlign=top;childLayout=stackLayout;horizontal=1;startSize=42;horizontalStack=0;resizeParent=1;resizeLast=0;collapsible=1;marginBottom=0;rounded=0;shadow=0;strokeWidth=1;" vertex="1" parent="WIyWlLk6GJQsqaUBKTNV-1">
          <mxGeometry x="849" y="676" width="270" height="256" as="geometry">
            <mxRectangle x="230" y="140" width="160" height="26" as="alternateBounds" />
          </mxGeometry>
        </mxCell>
        <mxCell id="JbixFuZtRlt0vlySyDat-148" value="+ objetos: list" style="text;align=left;verticalAlign=top;spacingLeft=4;spacingRight=4;overflow=hidden;rotatable=0;points=[[0,0.5],[1,0.5]];portConstraint=eastwest;" vertex="1" parent="JbixFuZtRlt0vlySyDat-147">
          <mxGeometry y="42" width="270" height="26" as="geometry" />
        </mxCell>
        <mxCell id="JbixFuZtRlt0vlySyDat-149" value="" style="line;html=1;strokeWidth=1;align=left;verticalAlign=middle;spacingTop=-1;spacingLeft=3;spacingRight=3;rotatable=0;labelPosition=right;points=[];portConstraint=eastwest;" vertex="1" parent="JbixFuZtRlt0vlySyDat-147">
          <mxGeometry y="68" width="270" height="10" as="geometry" />
        </mxCell>
        <mxCell id="JbixFuZtRlt0vlySyDat-150" value="+ Inserir(obj: Venda): void" style="text;align=left;verticalAlign=top;spacingLeft=4;spacingRight=4;overflow=hidden;rotatable=0;points=[[0,0.5],[1,0.5]];portConstraint=eastwest;" vertex="1" parent="JbixFuZtRlt0vlySyDat-147">
          <mxGeometry y="78" width="270" height="26" as="geometry" />
        </mxCell>
        <mxCell id="JbixFuZtRlt0vlySyDat-151" value="+ Listar(): List&lt;Venda&gt;" style="text;align=left;verticalAlign=top;spacingLeft=4;spacingRight=4;overflow=hidden;rotatable=0;points=[[0,0.5],[1,0.5]];portConstraint=eastwest;" vertex="1" parent="JbixFuZtRlt0vlySyDat-147">
          <mxGeometry y="104" width="270" height="26" as="geometry" />
        </mxCell>
        <mxCell id="JbixFuZtRlt0vlySyDat-152" value="+ Listar_Id(id: int): Venda" style="text;align=left;verticalAlign=top;spacingLeft=4;spacingRight=4;overflow=hidden;rotatable=0;points=[[0,0.5],[1,0.5]];portConstraint=eastwest;" vertex="1" parent="JbixFuZtRlt0vlySyDat-147">
          <mxGeometry y="130" width="270" height="26" as="geometry" />
        </mxCell>
        <mxCell id="JbixFuZtRlt0vlySyDat-153" value="+ Atualizar(obj: Venda): void" style="text;align=left;verticalAlign=top;spacingLeft=4;spacingRight=4;overflow=hidden;rotatable=0;points=[[0,0.5],[1,0.5]];portConstraint=eastwest;" vertex="1" parent="JbixFuZtRlt0vlySyDat-147">
          <mxGeometry y="156" width="270" height="26" as="geometry" />
        </mxCell>
        <mxCell id="JbixFuZtRlt0vlySyDat-154" value="+ Excluir(obj: Venda): void" style="text;align=left;verticalAlign=top;spacingLeft=4;spacingRight=4;overflow=hidden;rotatable=0;points=[[0,0.5],[1,0.5]];portConstraint=eastwest;" vertex="1" parent="JbixFuZtRlt0vlySyDat-147">
          <mxGeometry y="182" width="270" height="24" as="geometry" />
        </mxCell>
        <mxCell id="JbixFuZtRlt0vlySyDat-155" value="+ Salvar(): void" style="text;align=left;verticalAlign=top;spacingLeft=4;spacingRight=4;overflow=hidden;rotatable=0;points=[[0,0.5],[1,0.5]];portConstraint=eastwest;" vertex="1" parent="JbixFuZtRlt0vlySyDat-147">
          <mxGeometry y="206" width="270" height="26" as="geometry" />
        </mxCell>
        <mxCell id="JbixFuZtRlt0vlySyDat-156" value="+ Abrir(): void" style="text;align=left;verticalAlign=top;spacingLeft=4;spacingRight=4;overflow=hidden;rotatable=0;points=[[0,0.5],[1,0.5]];portConstraint=eastwest;" vertex="1" parent="JbixFuZtRlt0vlySyDat-147">
          <mxGeometry y="232" width="270" height="24" as="geometry" />
        </mxCell>
        <mxCell id="JbixFuZtRlt0vlySyDat-157" style="edgeStyle=orthogonalEdgeStyle;rounded=0;orthogonalLoop=1;jettySize=auto;html=1;exitX=0;exitY=0.5;exitDx=0;exitDy=0;entryX=1;entryY=0.5;entryDx=0;entryDy=0;endArrow=diamondThin;endFill=1;" edge="1" parent="WIyWlLk6GJQsqaUBKTNV-1" source="JbixFuZtRlt0vlySyDat-137" target="JbixFuZtRlt0vlySyDat-152">
          <mxGeometry relative="1" as="geometry" />
        </mxCell>
        <mxCell id="JbixFuZtRlt0vlySyDat-158" value="1" style="text;html=1;align=center;verticalAlign=middle;whiteSpace=wrap;rounded=0;" vertex="1" parent="WIyWlLk6GJQsqaUBKTNV-1">
          <mxGeometry x="1130" y="797" width="21" height="14" as="geometry" />
        </mxCell>
        <mxCell id="JbixFuZtRlt0vlySyDat-160" value="*" style="text;html=1;align=center;verticalAlign=middle;whiteSpace=wrap;rounded=0;" vertex="1" parent="WIyWlLk6GJQsqaUBKTNV-1">
          <mxGeometry x="1190" y="797" width="21" height="14" as="geometry" />
        </mxCell>
        <mxCell id="JbixFuZtRlt0vlySyDat-161" value="VendaItem" style="swimlane;fontStyle=2;align=center;verticalAlign=top;childLayout=stackLayout;horizontal=1;startSize=26;horizontalStack=0;resizeParent=1;resizeLast=0;collapsible=1;marginBottom=0;rounded=0;shadow=0;strokeWidth=1;" vertex="1" parent="WIyWlLk6GJQsqaUBKTNV-1">
          <mxGeometry x="1221" y="1190" width="389" height="500" as="geometry">
            <mxRectangle x="230" y="140" width="160" height="26" as="alternateBounds" />
          </mxGeometry>
        </mxCell>
        <mxCell id="JbixFuZtRlt0vlySyDat-162" value="- id: int" style="text;align=left;verticalAlign=top;spacingLeft=4;spacingRight=4;overflow=hidden;rotatable=0;points=[[0,0.5],[1,0.5]];portConstraint=eastwest;" vertex="1" parent="JbixFuZtRlt0vlySyDat-161">
          <mxGeometry y="26" width="389" height="26" as="geometry" />
        </mxCell>
        <mxCell id="JbixFuZtRlt0vlySyDat-163" value="- qtd: int" style="text;align=left;verticalAlign=top;spacingLeft=4;spacingRight=4;overflow=hidden;rotatable=0;points=[[0,0.5],[1,0.5]];portConstraint=eastwest;rounded=0;shadow=0;html=0;" vertex="1" parent="JbixFuZtRlt0vlySyDat-161">
          <mxGeometry y="52" width="389" height="26" as="geometry" />
        </mxCell>
        <mxCell id="JbixFuZtRlt0vlySyDat-164" value="- preco: float" style="text;align=left;verticalAlign=top;spacingLeft=4;spacingRight=4;overflow=hidden;rotatable=0;points=[[0,0.5],[1,0.5]];portConstraint=eastwest;rounded=0;shadow=0;html=0;" vertex="1" parent="JbixFuZtRlt0vlySyDat-161">
          <mxGeometry y="78" width="389" height="24" as="geometry" />
        </mxCell>
        <mxCell id="JbixFuZtRlt0vlySyDat-165" value="- id_venda: int" style="text;align=left;verticalAlign=top;spacingLeft=4;spacingRight=4;overflow=hidden;rotatable=0;points=[[0,0.5],[1,0.5]];portConstraint=eastwest;rounded=0;shadow=0;html=0;" vertex="1" parent="JbixFuZtRlt0vlySyDat-161">
          <mxGeometry y="102" width="389" height="24" as="geometry" />
        </mxCell>
        <mxCell id="JbixFuZtRlt0vlySyDat-166" value="- id_produto: int" style="text;align=left;verticalAlign=top;spacingLeft=4;spacingRight=4;overflow=hidden;rotatable=0;points=[[0,0.5],[1,0.5]];portConstraint=eastwest;rounded=0;shadow=0;html=0;" vertex="1" parent="JbixFuZtRlt0vlySyDat-161">
          <mxGeometry y="126" width="389" height="24" as="geometry" />
        </mxCell>
        <mxCell id="JbixFuZtRlt0vlySyDat-167" value="" style="line;html=1;strokeWidth=1;align=left;verticalAlign=middle;spacingTop=-1;spacingLeft=3;spacingRight=3;rotatable=0;labelPosition=right;points=[];portConstraint=eastwest;" vertex="1" parent="JbixFuZtRlt0vlySyDat-161">
          <mxGeometry y="150" width="389" height="10" as="geometry" />
        </mxCell>
        <mxCell id="JbixFuZtRlt0vlySyDat-168" value="+ VendaItem (id: int, qtd: int, preco: float, id_venda: int, id_produto: int)" style="text;align=left;verticalAlign=top;spacingLeft=4;spacingRight=4;overflow=hidden;rotatable=0;points=[[0,0.5],[1,0.5]];portConstraint=eastwest;" vertex="1" parent="JbixFuZtRlt0vlySyDat-161">
          <mxGeometry y="160" width="389" height="26" as="geometry" />
        </mxCell>
        <mxCell id="JbixFuZtRlt0vlySyDat-169" value="+ Set_Id(id: int): void" style="text;align=left;verticalAlign=top;spacingLeft=4;spacingRight=4;overflow=hidden;rotatable=0;points=[[0,0.5],[1,0.5]];portConstraint=eastwest;" vertex="1" parent="JbixFuZtRlt0vlySyDat-161">
          <mxGeometry y="186" width="389" height="26" as="geometry" />
        </mxCell>
        <mxCell id="JbixFuZtRlt0vlySyDat-170" value="+ Set_Qtd(qtd: int): void" style="text;align=left;verticalAlign=top;spacingLeft=4;spacingRight=4;overflow=hidden;rotatable=0;points=[[0,0.5],[1,0.5]];portConstraint=eastwest;" vertex="1" parent="JbixFuZtRlt0vlySyDat-161">
          <mxGeometry y="212" width="389" height="26" as="geometry" />
        </mxCell>
        <mxCell id="JbixFuZtRlt0vlySyDat-171" value="+ Set_Preco(p: float): void" style="text;align=left;verticalAlign=top;spacingLeft=4;spacingRight=4;overflow=hidden;rotatable=0;points=[[0,0.5],[1,0.5]];portConstraint=eastwest;" vertex="1" parent="JbixFuZtRlt0vlySyDat-161">
          <mxGeometry y="238" width="389" height="26" as="geometry" />
        </mxCell>
        <mxCell id="JbixFuZtRlt0vlySyDat-172" value="+ Set_Id_Venda(id_venda: int): void" style="text;align=left;verticalAlign=top;spacingLeft=4;spacingRight=4;overflow=hidden;rotatable=0;points=[[0,0.5],[1,0.5]];portConstraint=eastwest;" vertex="1" parent="JbixFuZtRlt0vlySyDat-161">
          <mxGeometry y="264" width="389" height="26" as="geometry" />
        </mxCell>
        <mxCell id="JbixFuZtRlt0vlySyDat-173" value="+ Set_Id_Produto(id_produto: int): void" style="text;align=left;verticalAlign=top;spacingLeft=4;spacingRight=4;overflow=hidden;rotatable=0;points=[[0,0.5],[1,0.5]];portConstraint=eastwest;" vertex="1" parent="JbixFuZtRlt0vlySyDat-161">
          <mxGeometry y="290" width="389" height="26" as="geometry" />
        </mxCell>
        <mxCell id="JbixFuZtRlt0vlySyDat-174" value="+ Get_Id(): int" style="text;align=left;verticalAlign=top;spacingLeft=4;spacingRight=4;overflow=hidden;rotatable=0;points=[[0,0.5],[1,0.5]];portConstraint=eastwest;" vertex="1" parent="JbixFuZtRlt0vlySyDat-161">
          <mxGeometry y="316" width="389" height="26" as="geometry" />
        </mxCell>
        <mxCell id="JbixFuZtRlt0vlySyDat-175" value="+ Get_Qtd(): int" style="text;align=left;verticalAlign=top;spacingLeft=4;spacingRight=4;overflow=hidden;rotatable=0;points=[[0,0.5],[1,0.5]];portConstraint=eastwest;" vertex="1" parent="JbixFuZtRlt0vlySyDat-161">
          <mxGeometry y="342" width="389" height="26" as="geometry" />
        </mxCell>
        <mxCell id="JbixFuZtRlt0vlySyDat-176" value="+ Get_Preco(): float" style="text;align=left;verticalAlign=top;spacingLeft=4;spacingRight=4;overflow=hidden;rotatable=0;points=[[0,0.5],[1,0.5]];portConstraint=eastwest;" vertex="1" parent="JbixFuZtRlt0vlySyDat-161">
          <mxGeometry y="368" width="389" height="26" as="geometry" />
        </mxCell>
        <mxCell id="JbixFuZtRlt0vlySyDat-177" value="+ Get_Id_Venda(): int" style="text;align=left;verticalAlign=top;spacingLeft=4;spacingRight=4;overflow=hidden;rotatable=0;points=[[0,0.5],[1,0.5]];portConstraint=eastwest;" vertex="1" parent="JbixFuZtRlt0vlySyDat-161">
          <mxGeometry y="394" width="389" height="26" as="geometry" />
        </mxCell>
        <mxCell id="JbixFuZtRlt0vlySyDat-178" value="+ Get_Id_Produto(): int" style="text;align=left;verticalAlign=top;spacingLeft=4;spacingRight=4;overflow=hidden;rotatable=0;points=[[0,0.5],[1,0.5]];portConstraint=eastwest;" vertex="1" parent="JbixFuZtRlt0vlySyDat-161">
          <mxGeometry y="420" width="389" height="26" as="geometry" />
        </mxCell>
        <mxCell id="JbixFuZtRlt0vlySyDat-179" value="+ ToString(): str" style="text;align=left;verticalAlign=top;spacingLeft=4;spacingRight=4;overflow=hidden;rotatable=0;points=[[0,0.5],[1,0.5]];portConstraint=eastwest;" vertex="1" parent="JbixFuZtRlt0vlySyDat-161">
          <mxGeometry y="446" width="389" height="26" as="geometry" />
        </mxCell>
        <mxCell id="JbixFuZtRlt0vlySyDat-180" value="+ To_Dict(): dict" style="text;align=left;verticalAlign=top;spacingLeft=4;spacingRight=4;overflow=hidden;rotatable=0;points=[[0,0.5],[1,0.5]];portConstraint=eastwest;" vertex="1" parent="JbixFuZtRlt0vlySyDat-161">
          <mxGeometry y="472" width="389" height="26" as="geometry" />
        </mxCell>
        <mxCell id="JbixFuZtRlt0vlySyDat-181" value="&lt;&lt;static&gt;&gt;&#xa;VendaItens" style="swimlane;fontStyle=2;align=center;verticalAlign=top;childLayout=stackLayout;horizontal=1;startSize=42;horizontalStack=0;resizeParent=1;resizeLast=0;collapsible=1;marginBottom=0;rounded=0;shadow=0;strokeWidth=1;" vertex="1" parent="WIyWlLk6GJQsqaUBKTNV-1">
          <mxGeometry x="851" y="1298" width="270" height="256" as="geometry">
            <mxRectangle x="230" y="140" width="160" height="26" as="alternateBounds" />
          </mxGeometry>
        </mxCell>
        <mxCell id="JbixFuZtRlt0vlySyDat-182" value="+ objetos: list" style="text;align=left;verticalAlign=top;spacingLeft=4;spacingRight=4;overflow=hidden;rotatable=0;points=[[0,0.5],[1,0.5]];portConstraint=eastwest;" vertex="1" parent="JbixFuZtRlt0vlySyDat-181">
          <mxGeometry y="42" width="270" height="26" as="geometry" />
        </mxCell>
        <mxCell id="JbixFuZtRlt0vlySyDat-183" value="" style="line;html=1;strokeWidth=1;align=left;verticalAlign=middle;spacingTop=-1;spacingLeft=3;spacingRight=3;rotatable=0;labelPosition=right;points=[];portConstraint=eastwest;" vertex="1" parent="JbixFuZtRlt0vlySyDat-181">
          <mxGeometry y="68" width="270" height="10" as="geometry" />
        </mxCell>
        <mxCell id="JbixFuZtRlt0vlySyDat-184" value="+ Inserir(obj: VendaItem): void" style="text;align=left;verticalAlign=top;spacingLeft=4;spacingRight=4;overflow=hidden;rotatable=0;points=[[0,0.5],[1,0.5]];portConstraint=eastwest;" vertex="1" parent="JbixFuZtRlt0vlySyDat-181">
          <mxGeometry y="78" width="270" height="26" as="geometry" />
        </mxCell>
        <mxCell id="JbixFuZtRlt0vlySyDat-185" value="+ Listar(): List&lt;VendaItem&gt;" style="text;align=left;verticalAlign=top;spacingLeft=4;spacingRight=4;overflow=hidden;rotatable=0;points=[[0,0.5],[1,0.5]];portConstraint=eastwest;" vertex="1" parent="JbixFuZtRlt0vlySyDat-181">
          <mxGeometry y="104" width="270" height="26" as="geometry" />
        </mxCell>
        <mxCell id="JbixFuZtRlt0vlySyDat-186" value="+ Listar_Id(id: int): VendaItem" style="text;align=left;verticalAlign=top;spacingLeft=4;spacingRight=4;overflow=hidden;rotatable=0;points=[[0,0.5],[1,0.5]];portConstraint=eastwest;" vertex="1" parent="JbixFuZtRlt0vlySyDat-181">
          <mxGeometry y="130" width="270" height="26" as="geometry" />
        </mxCell>
        <mxCell id="JbixFuZtRlt0vlySyDat-187" value="+ Atualizar(obj: VendaItem): void" style="text;align=left;verticalAlign=top;spacingLeft=4;spacingRight=4;overflow=hidden;rotatable=0;points=[[0,0.5],[1,0.5]];portConstraint=eastwest;" vertex="1" parent="JbixFuZtRlt0vlySyDat-181">
          <mxGeometry y="156" width="270" height="26" as="geometry" />
        </mxCell>
        <mxCell id="JbixFuZtRlt0vlySyDat-188" value="+ Excluir(obj: VendaItem): void" style="text;align=left;verticalAlign=top;spacingLeft=4;spacingRight=4;overflow=hidden;rotatable=0;points=[[0,0.5],[1,0.5]];portConstraint=eastwest;" vertex="1" parent="JbixFuZtRlt0vlySyDat-181">
          <mxGeometry y="182" width="270" height="24" as="geometry" />
        </mxCell>
        <mxCell id="JbixFuZtRlt0vlySyDat-189" value="+ Salvar(): void" style="text;align=left;verticalAlign=top;spacingLeft=4;spacingRight=4;overflow=hidden;rotatable=0;points=[[0,0.5],[1,0.5]];portConstraint=eastwest;" vertex="1" parent="JbixFuZtRlt0vlySyDat-181">
          <mxGeometry y="206" width="270" height="26" as="geometry" />
        </mxCell>
        <mxCell id="JbixFuZtRlt0vlySyDat-190" value="+ Abrir(): void" style="text;align=left;verticalAlign=top;spacingLeft=4;spacingRight=4;overflow=hidden;rotatable=0;points=[[0,0.5],[1,0.5]];portConstraint=eastwest;" vertex="1" parent="JbixFuZtRlt0vlySyDat-181">
          <mxGeometry y="232" width="270" height="24" as="geometry" />
        </mxCell>
        <mxCell id="JbixFuZtRlt0vlySyDat-194" style="edgeStyle=orthogonalEdgeStyle;rounded=0;orthogonalLoop=1;jettySize=auto;html=1;exitX=0;exitY=0.5;exitDx=0;exitDy=0;entryX=1;entryY=0.5;entryDx=0;entryDy=0;endArrow=diamondThin;endFill=1;" edge="1" parent="WIyWlLk6GJQsqaUBKTNV-1" source="JbixFuZtRlt0vlySyDat-171" target="JbixFuZtRlt0vlySyDat-186">
          <mxGeometry relative="1" as="geometry">
            <Array as="points">
              <mxPoint x="1150" y="1441" />
              <mxPoint x="1150" y="1441" />
            </Array>
          </mxGeometry>
        </mxCell>
        <mxCell id="JbixFuZtRlt0vlySyDat-195" value="&lt;&lt;static&gt;&gt;&#xa;UI" style="swimlane;fontStyle=2;align=center;verticalAlign=top;childLayout=stackLayout;horizontal=1;startSize=40;horizontalStack=0;resizeParent=1;resizeLast=0;collapsible=1;marginBottom=0;rounded=0;shadow=0;strokeWidth=1;" vertex="1" parent="WIyWlLk6GJQsqaUBKTNV-1">
          <mxGeometry x="30" y="1200" width="170" height="440" as="geometry">
            <mxRectangle x="230" y="140" width="160" height="26" as="alternateBounds" />
          </mxGeometry>
        </mxCell>
        <mxCell id="JbixFuZtRlt0vlySyDat-201" value="" style="line;html=1;strokeWidth=1;align=left;verticalAlign=middle;spacingTop=-1;spacingLeft=3;spacingRight=3;rotatable=0;labelPosition=right;points=[];portConstraint=eastwest;" vertex="1" parent="JbixFuZtRlt0vlySyDat-195">
          <mxGeometry y="40" width="170" height="10" as="geometry" />
        </mxCell>
        <mxCell id="JbixFuZtRlt0vlySyDat-202" value="+ Menu(): int" style="text;align=left;verticalAlign=top;spacingLeft=4;spacingRight=4;overflow=hidden;rotatable=0;points=[[0,0.5],[1,0.5]];portConstraint=eastwest;" vertex="1" parent="JbixFuZtRlt0vlySyDat-195">
          <mxGeometry y="50" width="170" height="26" as="geometry" />
        </mxCell>
        <mxCell id="JbixFuZtRlt0vlySyDat-203" value="+ Main(): void" style="text;align=left;verticalAlign=top;spacingLeft=4;spacingRight=4;overflow=hidden;rotatable=0;points=[[0,0.5],[1,0.5]];portConstraint=eastwest;" vertex="1" parent="JbixFuZtRlt0vlySyDat-195">
          <mxGeometry y="76" width="170" height="26" as="geometry" />
        </mxCell>
        <mxCell id="JbixFuZtRlt0vlySyDat-204" value="+ Cliente_Inserir(): void" style="text;align=left;verticalAlign=top;spacingLeft=4;spacingRight=4;overflow=hidden;rotatable=0;points=[[0,0.5],[1,0.5]];portConstraint=eastwest;" vertex="1" parent="JbixFuZtRlt0vlySyDat-195">
          <mxGeometry y="102" width="170" height="26" as="geometry" />
        </mxCell>
        <mxCell id="JbixFuZtRlt0vlySyDat-205" value="+ Cliente_Listar(): void" style="text;align=left;verticalAlign=top;spacingLeft=4;spacingRight=4;overflow=hidden;rotatable=0;points=[[0,0.5],[1,0.5]];portConstraint=eastwest;" vertex="1" parent="JbixFuZtRlt0vlySyDat-195">
          <mxGeometry y="128" width="170" height="26" as="geometry" />
        </mxCell>
        <mxCell id="JbixFuZtRlt0vlySyDat-206" value="+ Cliente_Atualizar(): void" style="text;align=left;verticalAlign=top;spacingLeft=4;spacingRight=4;overflow=hidden;rotatable=0;points=[[0,0.5],[1,0.5]];portConstraint=eastwest;" vertex="1" parent="JbixFuZtRlt0vlySyDat-195">
          <mxGeometry y="154" width="170" height="26" as="geometry" />
        </mxCell>
        <mxCell id="JbixFuZtRlt0vlySyDat-207" value="+ Cliente_Excluir(): void" style="text;align=left;verticalAlign=top;spacingLeft=4;spacingRight=4;overflow=hidden;rotatable=0;points=[[0,0.5],[1,0.5]];portConstraint=eastwest;" vertex="1" parent="JbixFuZtRlt0vlySyDat-195">
          <mxGeometry y="180" width="170" height="26" as="geometry" />
        </mxCell>
        <mxCell id="JbixFuZtRlt0vlySyDat-208" value="+ Categoria_Inserir(): void" style="text;align=left;verticalAlign=top;spacingLeft=4;spacingRight=4;overflow=hidden;rotatable=0;points=[[0,0.5],[1,0.5]];portConstraint=eastwest;" vertex="1" parent="JbixFuZtRlt0vlySyDat-195">
          <mxGeometry y="206" width="170" height="26" as="geometry" />
        </mxCell>
        <mxCell id="JbixFuZtRlt0vlySyDat-209" value="+ Categoria_Listar(): void" style="text;align=left;verticalAlign=top;spacingLeft=4;spacingRight=4;overflow=hidden;rotatable=0;points=[[0,0.5],[1,0.5]];portConstraint=eastwest;" vertex="1" parent="JbixFuZtRlt0vlySyDat-195">
          <mxGeometry y="232" width="170" height="26" as="geometry" />
        </mxCell>
        <mxCell id="JbixFuZtRlt0vlySyDat-210" value="+ Categoria_Atualizar(): void" style="text;align=left;verticalAlign=top;spacingLeft=4;spacingRight=4;overflow=hidden;rotatable=0;points=[[0,0.5],[1,0.5]];portConstraint=eastwest;" vertex="1" parent="JbixFuZtRlt0vlySyDat-195">
          <mxGeometry y="258" width="170" height="26" as="geometry" />
        </mxCell>
        <mxCell id="JbixFuZtRlt0vlySyDat-211" value="+ Categoria_Excluir(): void" style="text;align=left;verticalAlign=top;spacingLeft=4;spacingRight=4;overflow=hidden;rotatable=0;points=[[0,0.5],[1,0.5]];portConstraint=eastwest;" vertex="1" parent="JbixFuZtRlt0vlySyDat-195">
          <mxGeometry y="284" width="170" height="26" as="geometry" />
        </mxCell>
        <mxCell id="JbixFuZtRlt0vlySyDat-212" value="+ Produto_Inserir(): void" style="text;align=left;verticalAlign=top;spacingLeft=4;spacingRight=4;overflow=hidden;rotatable=0;points=[[0,0.5],[1,0.5]];portConstraint=eastwest;" vertex="1" parent="JbixFuZtRlt0vlySyDat-195">
          <mxGeometry y="310" width="170" height="26" as="geometry" />
        </mxCell>
        <mxCell id="JbixFuZtRlt0vlySyDat-215" value="+ Produto_Listar(): void" style="text;align=left;verticalAlign=top;spacingLeft=4;spacingRight=4;overflow=hidden;rotatable=0;points=[[0,0.5],[1,0.5]];portConstraint=eastwest;" vertex="1" parent="JbixFuZtRlt0vlySyDat-195">
          <mxGeometry y="336" width="170" height="26" as="geometry" />
        </mxCell>
        <mxCell id="JbixFuZtRlt0vlySyDat-216" value="+ Produto_Atualizar(): void" style="text;align=left;verticalAlign=top;spacingLeft=4;spacingRight=4;overflow=hidden;rotatable=0;points=[[0,0.5],[1,0.5]];portConstraint=eastwest;" vertex="1" parent="JbixFuZtRlt0vlySyDat-195">
          <mxGeometry y="362" width="170" height="26" as="geometry" />
        </mxCell>
        <mxCell id="JbixFuZtRlt0vlySyDat-217" value="+ Produto_Excluir(): void" style="text;align=left;verticalAlign=top;spacingLeft=4;spacingRight=4;overflow=hidden;rotatable=0;points=[[0,0.5],[1,0.5]];portConstraint=eastwest;" vertex="1" parent="JbixFuZtRlt0vlySyDat-195">
          <mxGeometry y="388" width="170" height="26" as="geometry" />
        </mxCell>
        <mxCell id="JbixFuZtRlt0vlySyDat-218" value="+ Produto_Reajustar(): void" style="text;align=left;verticalAlign=top;spacingLeft=4;spacingRight=4;overflow=hidden;rotatable=0;points=[[0,0.5],[1,0.5]];portConstraint=eastwest;" vertex="1" parent="JbixFuZtRlt0vlySyDat-195">
          <mxGeometry y="414" width="170" height="26" as="geometry" />
        </mxCell>
        <mxCell id="JbixFuZtRlt0vlySyDat-219" value="&lt;&lt;static&gt;&gt;&#xa;View" style="swimlane;fontStyle=2;align=center;verticalAlign=top;childLayout=stackLayout;horizontal=1;startSize=40;horizontalStack=0;resizeParent=1;resizeLast=0;collapsible=1;marginBottom=0;rounded=0;shadow=0;strokeWidth=1;" vertex="1" parent="WIyWlLk6GJQsqaUBKTNV-1">
          <mxGeometry x="300" y="1200" width="490" height="752" as="geometry">
            <mxRectangle x="230" y="140" width="160" height="26" as="alternateBounds" />
          </mxGeometry>
        </mxCell>
        <mxCell id="JbixFuZtRlt0vlySyDat-220" value="" style="line;html=1;strokeWidth=1;align=left;verticalAlign=middle;spacingTop=-1;spacingLeft=3;spacingRight=3;rotatable=0;labelPosition=right;points=[];portConstraint=eastwest;" vertex="1" parent="JbixFuZtRlt0vlySyDat-219">
          <mxGeometry y="40" width="490" height="10" as="geometry" />
        </mxCell>
        <mxCell id="JbixFuZtRlt0vlySyDat-236" value="+ Cliente_Admin(): void" style="text;align=left;verticalAlign=top;spacingLeft=4;spacingRight=4;overflow=hidden;rotatable=0;points=[[0,0.5],[1,0.5]];portConstraint=eastwest;" vertex="1" parent="JbixFuZtRlt0vlySyDat-219">
          <mxGeometry y="50" width="490" height="26" as="geometry" />
        </mxCell>
        <mxCell id="JbixFuZtRlt0vlySyDat-237" value="+ Cliente_Autenticar(email: str, senha: str): void" style="text;align=left;verticalAlign=top;spacingLeft=4;spacingRight=4;overflow=hidden;rotatable=0;points=[[0,0.5],[1,0.5]];portConstraint=eastwest;" vertex="1" parent="JbixFuZtRlt0vlySyDat-219">
          <mxGeometry y="76" width="490" height="26" as="geometry" />
        </mxCell>
        <mxCell id="JbixFuZtRlt0vlySyDat-224" value="+ Cliente_Listar(): List&lt;Clientes&gt;" style="text;align=left;verticalAlign=top;spacingLeft=4;spacingRight=4;overflow=hidden;rotatable=0;points=[[0,0.5],[1,0.5]];portConstraint=eastwest;" vertex="1" parent="JbixFuZtRlt0vlySyDat-219">
          <mxGeometry y="102" width="490" height="26" as="geometry" />
        </mxCell>
        <mxCell id="JbixFuZtRlt0vlySyDat-223" value="+ Cliente_Inserir(nome: str, email: str, fone: str, senha: str): void" style="text;align=left;verticalAlign=top;spacingLeft=4;spacingRight=4;overflow=hidden;rotatable=0;points=[[0,0.5],[1,0.5]];portConstraint=eastwest;" vertex="1" parent="JbixFuZtRlt0vlySyDat-219">
          <mxGeometry y="128" width="490" height="26" as="geometry" />
        </mxCell>
        <mxCell id="JbixFuZtRlt0vlySyDat-225" value="+ Cliente_Atualizar(id: int, nome: str, email: str, fone: str, senha: str): void" style="text;align=left;verticalAlign=top;spacingLeft=4;spacingRight=4;overflow=hidden;rotatable=0;points=[[0,0.5],[1,0.5]];portConstraint=eastwest;" vertex="1" parent="JbixFuZtRlt0vlySyDat-219">
          <mxGeometry y="154" width="490" height="26" as="geometry" />
        </mxCell>
        <mxCell id="JbixFuZtRlt0vlySyDat-226" value="+ Cliente_Excluir(id: int): void" style="text;align=left;verticalAlign=top;spacingLeft=4;spacingRight=4;overflow=hidden;rotatable=0;points=[[0,0.5],[1,0.5]];portConstraint=eastwest;" vertex="1" parent="JbixFuZtRlt0vlySyDat-219">
          <mxGeometry y="180" width="490" height="26" as="geometry" />
        </mxCell>
        <mxCell id="JbixFuZtRlt0vlySyDat-228" value="+ Categoria_Listar(): List&lt;Categorias&gt;" style="text;align=left;verticalAlign=top;spacingLeft=4;spacingRight=4;overflow=hidden;rotatable=0;points=[[0,0.5],[1,0.5]];portConstraint=eastwest;" vertex="1" parent="JbixFuZtRlt0vlySyDat-219">
          <mxGeometry y="206" width="490" height="26" as="geometry" />
        </mxCell>
        <mxCell id="JbixFuZtRlt0vlySyDat-238" value="+ Categoria_Listar_Id(): List&lt;Categorias&gt;" style="text;align=left;verticalAlign=top;spacingLeft=4;spacingRight=4;overflow=hidden;rotatable=0;points=[[0,0.5],[1,0.5]];portConstraint=eastwest;" vertex="1" parent="JbixFuZtRlt0vlySyDat-219">
          <mxGeometry y="232" width="490" height="26" as="geometry" />
        </mxCell>
        <mxCell id="JbixFuZtRlt0vlySyDat-227" value="+ Categoria_Inserir(descricao: str): void" style="text;align=left;verticalAlign=top;spacingLeft=4;spacingRight=4;overflow=hidden;rotatable=0;points=[[0,0.5],[1,0.5]];portConstraint=eastwest;" vertex="1" parent="JbixFuZtRlt0vlySyDat-219">
          <mxGeometry y="258" width="490" height="26" as="geometry" />
        </mxCell>
        <mxCell id="JbixFuZtRlt0vlySyDat-229" value="+ Categoria_Atualizar(id: int, descricao: str): void" style="text;align=left;verticalAlign=top;spacingLeft=4;spacingRight=4;overflow=hidden;rotatable=0;points=[[0,0.5],[1,0.5]];portConstraint=eastwest;" vertex="1" parent="JbixFuZtRlt0vlySyDat-219">
          <mxGeometry y="284" width="490" height="26" as="geometry" />
        </mxCell>
        <mxCell id="JbixFuZtRlt0vlySyDat-230" value="+ Categoria_Excluir(id: int): void" style="text;align=left;verticalAlign=top;spacingLeft=4;spacingRight=4;overflow=hidden;rotatable=0;points=[[0,0.5],[1,0.5]];portConstraint=eastwest;" vertex="1" parent="JbixFuZtRlt0vlySyDat-219">
          <mxGeometry y="310" width="490" height="26" as="geometry" />
        </mxCell>
        <mxCell id="JbixFuZtRlt0vlySyDat-232" value="+ Produto_Listar(): List&lt;Produtos&gt;" style="text;align=left;verticalAlign=top;spacingLeft=4;spacingRight=4;overflow=hidden;rotatable=0;points=[[0,0.5],[1,0.5]];portConstraint=eastwest;" vertex="1" parent="JbixFuZtRlt0vlySyDat-219">
          <mxGeometry y="336" width="490" height="26" as="geometry" />
        </mxCell>
        <mxCell id="JbixFuZtRlt0vlySyDat-231" value="+ Produto_Inserir(descricao: str, preco: float, estoque: int, id_categoria: int): void" style="text;align=left;verticalAlign=top;spacingLeft=4;spacingRight=4;overflow=hidden;rotatable=0;points=[[0,0.5],[1,0.5]];portConstraint=eastwest;" vertex="1" parent="JbixFuZtRlt0vlySyDat-219">
          <mxGeometry y="362" width="490" height="26" as="geometry" />
        </mxCell>
        <mxCell id="JbixFuZtRlt0vlySyDat-233" value="+ Produto_Atualizar(id: int, descricao: str, preco: float, estoque: int, id_categoria: int): void" style="text;align=left;verticalAlign=top;spacingLeft=4;spacingRight=4;overflow=hidden;rotatable=0;points=[[0,0.5],[1,0.5]];portConstraint=eastwest;" vertex="1" parent="JbixFuZtRlt0vlySyDat-219">
          <mxGeometry y="388" width="490" height="26" as="geometry" />
        </mxCell>
        <mxCell id="JbixFuZtRlt0vlySyDat-234" value="+ Produto_Excluir(id: int): void" style="text;align=left;verticalAlign=top;spacingLeft=4;spacingRight=4;overflow=hidden;rotatable=0;points=[[0,0.5],[1,0.5]];portConstraint=eastwest;" vertex="1" parent="JbixFuZtRlt0vlySyDat-219">
          <mxGeometry y="414" width="490" height="26" as="geometry" />
        </mxCell>
        <mxCell id="JbixFuZtRlt0vlySyDat-235" value="+ Produto_Reajustar(percentual: float, id: int): void" style="text;align=left;verticalAlign=top;spacingLeft=4;spacingRight=4;overflow=hidden;rotatable=0;points=[[0,0.5],[1,0.5]];portConstraint=eastwest;" vertex="1" parent="JbixFuZtRlt0vlySyDat-219">
          <mxGeometry y="440" width="490" height="26" as="geometry" />
        </mxCell>
        <mxCell id="JbixFuZtRlt0vlySyDat-239" value="+ Venda_Inserir(carrinho: bool, total: float, id_cliente: int): void" style="text;align=left;verticalAlign=top;spacingLeft=4;spacingRight=4;overflow=hidden;rotatable=0;points=[[0,0.5],[1,0.5]];portConstraint=eastwest;" vertex="1" parent="JbixFuZtRlt0vlySyDat-219">
          <mxGeometry y="466" width="490" height="26" as="geometry" />
        </mxCell>
        <mxCell id="JbixFuZtRlt0vlySyDat-240" value="+ Venda_Confirmar(id_cliente: int): void" style="text;align=left;verticalAlign=top;spacingLeft=4;spacingRight=4;overflow=hidden;rotatable=0;points=[[0,0.5],[1,0.5]];portConstraint=eastwest;" vertex="1" parent="JbixFuZtRlt0vlySyDat-219">
          <mxGeometry y="492" width="490" height="26" as="geometry" />
        </mxCell>
        <mxCell id="JbixFuZtRlt0vlySyDat-241" value="+ Venda_Listar(): List&lt;Vendas&gt;" style="text;align=left;verticalAlign=top;spacingLeft=4;spacingRight=4;overflow=hidden;rotatable=0;points=[[0,0.5],[1,0.5]];portConstraint=eastwest;" vertex="1" parent="JbixFuZtRlt0vlySyDat-219">
          <mxGeometry y="518" width="490" height="26" as="geometry" />
        </mxCell>
        <mxCell id="JbixFuZtRlt0vlySyDat-242" value="+ Venda_Listar_Id(): List&lt;Vendas&gt;" style="text;align=left;verticalAlign=top;spacingLeft=4;spacingRight=4;overflow=hidden;rotatable=0;points=[[0,0.5],[1,0.5]];portConstraint=eastwest;" vertex="1" parent="JbixFuZtRlt0vlySyDat-219">
          <mxGeometry y="544" width="490" height="26" as="geometry" />
        </mxCell>
        <mxCell id="JbixFuZtRlt0vlySyDat-243" value="+ Venda_Atualizar(id: int, data: str, carrinho: bool, total: float, id_cliente: int): void" style="text;align=left;verticalAlign=top;spacingLeft=4;spacingRight=4;overflow=hidden;rotatable=0;points=[[0,0.5],[1,0.5]];portConstraint=eastwest;" vertex="1" parent="JbixFuZtRlt0vlySyDat-219">
          <mxGeometry y="570" width="490" height="26" as="geometry" />
        </mxCell>
        <mxCell id="JbixFuZtRlt0vlySyDat-244" value="+ Venda_Excluir(id: int): void" style="text;align=left;verticalAlign=top;spacingLeft=4;spacingRight=4;overflow=hidden;rotatable=0;points=[[0,0.5],[1,0.5]];portConstraint=eastwest;" vertex="1" parent="JbixFuZtRlt0vlySyDat-219">
          <mxGeometry y="596" width="490" height="26" as="geometry" />
        </mxCell>
        <mxCell id="JbixFuZtRlt0vlySyDat-245" value="+ Venda_Item_Listar(): List&lt;VendaItens&gt;" style="text;align=left;verticalAlign=top;spacingLeft=4;spacingRight=4;overflow=hidden;rotatable=0;points=[[0,0.5],[1,0.5]];portConstraint=eastwest;" vertex="1" parent="JbixFuZtRlt0vlySyDat-219">
          <mxGeometry y="622" width="490" height="26" as="geometry" />
        </mxCell>
        <mxCell id="JbixFuZtRlt0vlySyDat-246" value="+ Venda_Item_Listar_Id(): List&lt;VendaItens&gt;" style="text;align=left;verticalAlign=top;spacingLeft=4;spacingRight=4;overflow=hidden;rotatable=0;points=[[0,0.5],[1,0.5]];portConstraint=eastwest;" vertex="1" parent="JbixFuZtRlt0vlySyDat-219">
          <mxGeometry y="648" width="490" height="26" as="geometry" />
        </mxCell>
        <mxCell id="JbixFuZtRlt0vlySyDat-249" value="+ Venda_Item_Inserir(qtd: int, preco: float, id_venda: int, id_produto: int): void" style="text;align=left;verticalAlign=top;spacingLeft=4;spacingRight=4;overflow=hidden;rotatable=0;points=[[0,0.5],[1,0.5]];portConstraint=eastwest;" vertex="1" parent="JbixFuZtRlt0vlySyDat-219">
          <mxGeometry y="674" width="490" height="26" as="geometry" />
        </mxCell>
        <mxCell id="JbixFuZtRlt0vlySyDat-247" value="+ Venda_Atualizar(id: int, qtd: int, preco: float, id_venda: int, id_produto: int): void" style="text;align=left;verticalAlign=top;spacingLeft=4;spacingRight=4;overflow=hidden;rotatable=0;points=[[0,0.5],[1,0.5]];portConstraint=eastwest;" vertex="1" parent="JbixFuZtRlt0vlySyDat-219">
          <mxGeometry y="700" width="490" height="26" as="geometry" />
        </mxCell>
        <mxCell id="JbixFuZtRlt0vlySyDat-248" value="+ Venda_Excluir(id: int): void" style="text;align=left;verticalAlign=top;spacingLeft=4;spacingRight=4;overflow=hidden;rotatable=0;points=[[0,0.5],[1,0.5]];portConstraint=eastwest;" vertex="1" parent="JbixFuZtRlt0vlySyDat-219">
          <mxGeometry y="726" width="490" height="26" as="geometry" />
        </mxCell>
      </root>
    </mxGraphModel>
  </diagram>
</mxfile>
